<svg width="343" height="127" viewBox="0 0 343 127" fill="none" xmlns="http://www.w3.org/2000/svg">
<path d="M52.9465 88.2052V81.031H28.9681V69.1711H60.8811V61.7708H19.855V81.031V88.2052V108.823H60.978V101.487H28.9681V88.2052H52.9465Z" fill="white"/>
<rect x="19.855" y="44.1219" width="8.82439" height="71.6982" fill="white"/>
<circle cx="24.8186" cy="24.8186" r="20.4064" stroke="white" stroke-width="8.82439"/>
<rect x="19.855" y="80.5226" width="7.72134" height="7.72134" fill="white"/>
<path d="M103.695 69.2172V61.8373H65.8608V69.2172H80.1372V108.759H89.2251V69.2172H103.695ZM139.821 108.759V61.8373H130.862V81.0765H117.584V61.8373H108.593V108.759H117.584V88.4242H130.862V108.759H139.821ZM148.425 108.759H165.538C168.116 108.759 170.436 108.469 172.499 107.889C174.561 107.309 176.312 106.439 177.751 105.279C179.191 104.119 180.297 102.679 181.071 100.96C181.844 99.2416 182.231 97.2543 182.231 94.9984C182.231 93.8168 182.07 92.6781 181.748 91.5824C181.447 90.4652 180.974 89.434 180.33 88.4886C179.707 87.6078 178.933 86.8344 178.009 86.1683C177.107 85.5023 175.882 84.9545 174.335 84.5248V84.4926C175.13 84.1918 175.85 83.8265 176.495 83.3969C177.161 82.9672 177.751 82.4945 178.267 81.9789C179.212 81.0336 179.921 79.9379 180.394 78.6918C180.888 77.4242 181.146 76.0814 181.167 74.6635C181.167 72.472 180.759 70.5707 179.943 68.9594C179.148 67.348 178.009 66.016 176.527 64.9633C175.044 63.9105 173.25 63.1263 171.145 62.6107C169.061 62.0951 166.741 61.8373 164.184 61.8373H148.425V108.759ZM157.513 88.0697H165.957C167.224 88.0912 168.32 88.2631 169.244 88.5853C170.167 88.9076 170.919 89.3695 171.5 89.9711C172.08 90.5511 172.499 91.2601 172.756 92.098C173.036 92.9359 173.175 93.8812 173.175 94.934C173.175 95.9437 172.993 96.8568 172.627 97.6732C172.284 98.4896 171.768 99.1879 171.081 99.7679C170.458 100.284 169.673 100.692 168.728 100.993C167.804 101.293 166.751 101.444 165.57 101.444H157.513V88.0697ZM157.513 81.5277V69.2172H164.216C165.677 69.2386 166.945 69.3998 168.019 69.7006C169.115 70.0013 169.985 70.4847 170.629 71.1508C171.124 71.6234 171.489 72.2142 171.725 72.9232C171.983 73.6322 172.112 74.4594 172.112 75.4047C172.112 76.307 171.961 77.1127 171.661 77.8217C171.381 78.5306 170.973 79.1322 170.436 79.6263C169.792 80.2494 168.943 80.722 167.89 81.0443C166.837 81.3451 165.624 81.5062 164.249 81.5277H157.513ZM213.491 73.2455C211.149 73.2455 208.99 73.8148 207.013 74.9535C205.037 76.0707 203.339 77.6176 201.921 79.5941L201.857 78.8207L201.502 73.89H193.156V108.759H202.115V87.8119C202.523 86.8236 203.039 85.9642 203.662 85.2338C204.285 84.5033 205.037 83.9017 205.917 83.4291C206.648 83.0209 207.475 82.7201 208.399 82.5267C209.344 82.3119 210.397 82.2045 211.557 82.2045C212.674 82.2045 213.845 82.2797 215.07 82.4301C216.316 82.559 217.53 82.7631 218.711 83.0424L220.033 74.1156C219.324 73.9008 218.389 73.7074 217.229 73.5355C216.09 73.3422 214.844 73.2455 213.491 73.2455ZM228.089 108.759H237.081V83.9769C237.381 83.5043 237.714 83.0746 238.08 82.6879C238.445 82.3011 238.853 81.9681 239.304 81.6888C239.863 81.3021 240.497 81.0121 241.206 80.8187C241.936 80.6254 242.731 80.5287 243.59 80.5287C244.622 80.5287 245.545 80.6361 246.362 80.851C247.178 81.0443 247.876 81.3988 248.457 81.9144C249.037 82.4301 249.477 83.139 249.778 84.0414C250.1 84.9222 250.261 86.0502 250.261 87.4252V108.759H259.22V87.2963C259.22 84.7611 258.919 82.6127 258.318 80.851C257.738 79.0677 256.921 77.6068 255.869 76.4681C254.794 75.351 253.527 74.5345 252.066 74.0189C250.605 73.5033 248.994 73.2455 247.232 73.2455C245.857 73.2455 244.557 73.4388 243.333 73.8256C242.108 74.2123 240.98 74.7709 239.949 75.5013C239.347 75.931 238.778 76.4144 238.241 76.9515C237.704 77.4886 237.209 78.0795 236.758 78.724L236.21 73.89H228.089V108.759ZM266.503 91.0023V91.6791C266.503 94.2357 266.869 96.599 267.599 98.7689C268.33 100.917 269.404 102.786 270.822 104.376C272.218 105.966 273.937 107.212 275.978 108.115C278.041 108.995 280.382 109.436 283.003 109.436C285.603 109.436 287.923 108.995 289.964 108.115C292.005 107.212 293.724 105.966 295.121 104.376C296.517 102.786 297.581 100.917 298.311 98.7689C299.042 96.599 299.407 94.2357 299.407 91.6791V91.0023C299.407 88.4672 299.042 86.1254 298.311 83.9769C297.581 81.807 296.517 79.9271 295.121 78.3373C293.703 76.7474 291.973 75.5013 289.932 74.599C287.891 73.6967 285.56 73.2455 282.939 73.2455C280.318 73.2455 277.987 73.6967 275.946 74.599C273.926 75.5013 272.218 76.7474 270.822 78.3373C269.404 79.9271 268.33 81.807 267.599 83.9769C266.869 86.1254 266.503 88.4672 266.503 91.0023ZM275.462 91.6791V91.0023C275.462 89.5844 275.602 88.2416 275.881 86.974C276.161 85.7064 276.601 84.5892 277.203 83.6224C277.804 82.6556 278.578 81.8929 279.523 81.3344C280.468 80.7758 281.607 80.4965 282.939 80.4965C284.292 80.4965 285.442 80.7758 286.387 81.3344C287.333 81.8929 288.106 82.6556 288.708 83.6224C289.288 84.5892 289.717 85.7064 289.997 86.974C290.276 88.2416 290.416 89.5844 290.416 91.0023V91.6791C290.416 93.14 290.276 94.515 289.997 95.8041C289.717 97.0717 289.288 98.1781 288.708 99.1234C288.106 100.09 287.333 100.853 286.387 101.411C285.442 101.97 284.314 102.249 283.003 102.249C281.65 102.249 280.49 101.97 279.523 101.411C278.578 100.853 277.804 100.09 277.203 99.1234C276.601 98.1781 276.161 97.0717 275.881 95.8041C275.602 94.515 275.462 93.14 275.462 91.6791ZM332.922 87.264V82.14H321.482L325.252 79.1429C326.413 78.2191 327.422 77.3705 328.282 76.597C329.141 75.8236 329.861 75.0609 330.441 74.309C331.021 73.557 331.451 72.7943 331.73 72.0209C332.031 71.2474 332.181 70.3881 332.181 69.4427C332.181 68.3256 332.009 67.3158 331.666 66.4135C331.322 65.4896 330.817 64.7054 330.151 64.0609C329.313 63.223 328.228 62.5892 326.896 62.1595C325.564 61.7084 324.017 61.4828 322.255 61.4828C320.73 61.4828 319.366 61.7191 318.163 62.1918C316.959 62.6429 315.928 63.266 315.069 64.0609C314.209 64.8773 313.554 65.8226 313.103 66.8969C312.652 67.9496 312.426 69.0775 312.426 70.2806H318.904C318.904 69.808 318.968 69.3568 319.097 68.9271C319.248 68.4974 319.473 68.1215 319.774 67.7992C320.075 67.4554 320.451 67.1869 320.902 66.9935C321.375 66.7787 321.922 66.6713 322.545 66.6713C323.061 66.6713 323.512 66.7465 323.899 66.8969C324.307 67.0258 324.64 67.2084 324.898 67.4447C325.156 67.681 325.349 67.9818 325.478 68.347C325.607 68.6908 325.671 69.0668 325.671 69.475C325.671 69.7758 325.585 70.141 325.414 70.5707C325.263 71.0004 325.005 71.473 324.64 71.9886C324.361 72.3754 324.028 72.7943 323.641 73.2455C323.254 73.6752 322.792 74.1263 322.255 74.599L313.006 82.9457V87.264H332.922Z" fill="white"/>
</svg>
