<svg width="4961" height="7016" fill="none" xmlns="http://www.w3.org/2000/svg">
  <path fill="#fff" d="M0 0h4961v7016H0z"/>
  <path d="M3320 6461a13 13 0 0 1-6 12l-6 3a29 29 0 0 1-15 0 20 20 0 0 1-14-18h-13c0 4 1 8 3 11 1 4 4 7 7 9l11 7a42 42 0 0 0 26 1l10-5 7-8c2-4 3-7 3-12l-2-11-8-8c-2-3-6-5-9-6a96 96 0 0 0-18-7l-7-3-5-5c-2-2-2-4-2-7l1-7 4-5 6-3a24 24 0 0 1 15 1 17 17 0 0 1 10 9l2 8h13a28 28 0 0 0-10-21c-3-3-7-5-10-6a35 35 0 0 0-24-1c-4 2-7 3-10 6-3 2-6 5-7 8-2 3-3 7-3 11s1 8 3 11c1 3 4 6 7 8l9 6a112 112 0 0 0 18 6l7 4 5 5c2 2 2 4 2 7Zm53-9 27 34h15l-33-42 29-30h-15l-24 24-8 8v-62h-12v102h12v-25l9-9Zm66 63 9-2a25 25 0 0 0 11-10l3-6 37-83h-14l-18 47-4 8-3-9-20-46h-14l32 69-5 9a62 62 0 0 1-5 8l-4 3-4 1h-6l-2 10a82 82 0 0 0 7 1Zm206-102c-6 0-10 1-14 3s-8 5-11 9v-11h-12v72h12v-46l3-6a19 19 0 0 1 11-8l8-1a54 54 0 0 1 14 1l1-12-5-1h-7Zm31 36v2l2 14 7 12c3 3 6 6 10 7a32 32 0 0 0 27 0c4-1 8-4 11-7 3-4 5-7 6-12 2-4 2-9 2-14v-2c0-5 0-10-2-14-1-5-3-9-6-12l-11-8c-4-2-8-2-13-2a32 32 0 0 0-24 10c-3 3-5 7-7 12l-2 14Zm12 2v-2l2-10c0-3 2-6 3-8 2-3 4-5 7-6 2-2 5-2 9-2 3 0 6 0 9 2l6 6 4 8 1 10v2l-1 10-4 8-6 6c-3 2-6 2-9 2a18 18 0 0 1-16-8c-1-2-3-5-3-8l-2-10Zm70-2v2l2 14 7 12c2 3 6 6 10 7a32 32 0 0 0 27 0c4-1 8-4 11-7 3-4 5-7 6-12 2-4 2-9 2-14v-2c0-5 0-10-2-14-1-5-3-9-6-12l-11-8c-4-2-8-2-13-2a32 32 0 0 0-24 10c-3 3-5 7-7 12l-2 14Zm12 2v-2l1-10 4-8c2-3 4-5 7-6 2-2 5-2 9-2 3 0 6 0 9 2l6 6 4 8 1 10v2l-1 10-4 8-6 6c-3 2-6 2-9 2a18 18 0 0 1-16-8l-4-8-1-10Zm79-37h-11v72h12v-57l1-2 1-2 3-1a13 13 0 0 1 7 0l3 1 1 3 1 4v54h12v-58l2-3 3-1 3-1 4 1 3 1 1 3 1 4v54h12v-54l-2-9-3-6c-2-2-3-3-5-3a19 19 0 0 0-16 1 18 18 0 0 0-5 5 14 14 0 0 0-4-5l-4-2h-5c-4 0-7 0-9 2l-6 6v-7ZM538 5684h1810v178H538z" fill="#000"/>
  <path fill="#000" d="M1374 5424h321v261h-321z"/>
  <path fill="#000" stroke="#000" stroke-width="12" d="M867 5908h322v249H867zm782 0h323v249h-323z"/>
  <path fill="#000" d="M1270 5862h297v260h-297zm1964-410h650v209h-650z"/>
  <path fill="#000" d="M3804 5452h313v823h-313zm-566 277h474v546h-474z"/>
  <g clip-path="url(#a)">
    <path d="M1643 5491c0 6-5 11-11 11h-33v33c0 6-5 11-12 11h-33v34c0 6-5 11-11 11h-34v33c0 7-5 11-11 11h-44a11 11 0 1 1 0-22h33v-33c0-6 5-11 11-11h34v-34c0-6 5-11 11-11h33v-33c0-7 5-12 11-12h45c6 0 11 5 11 12Z" fill="#FF5151"/>
  </g>
  <g clip-path="url(#b)">
    <path d="M1519 5924c0 6-5 11-11 11h-34v34c0 6-5 11-11 11h-33v33c0 6-5 11-12 11h-33v34c0 6-5 11-11 11h-45a11 11 0 1 1 0-22h34v-34c0-6 5-11 11-11h33v-33c0-7 5-12 11-12h34v-33c0-6 5-11 11-11h45c6 0 11 5 11 11Z" fill="#FFE600"/>
  </g>
  <path fill="#000" d="M2626 3026h305v658h-305z"/>
  <path fill="#000" d="M1519 3367h1308v428H1519zm1308 0h754v915h-754z"/>
  <path fill="#000" stroke="#000" stroke-width="40.1" d="M1539 3745h1268v517H1539z"/>
  <path fill="#000" d="M2826 4178h185v542h-185zm-220 217h220v325h-220zm974-20h329v345h-329zm0-482h417v482h-417z"/>
  <g clip-path="url(#c)">
    <path d="M2879 3121c0 6-5 11-11 11h-34v33c0 7-5 12-11 12h-34v33c0 6-5 11-11 11h-33v34c0 6-5 11-11 11h-45a11 11 0 1 1 0-22h34v-34c0-6 5-11 11-11h33v-34c0-6 5-11 11-11h34v-33c0-6 5-11 11-11h45c6 0 11 5 11 11Z" fill="#FF5151"/>
  </g>
  <g clip-path="url(#d)">
    <path d="M2899 4493c0 6-5 11-11 11h-34v34c0 6-5 11-11 11h-33v33c0 7-5 12-12 12h-33v33c0 6-5 11-11 11h-45a11 11 0 1 1 0-22h34v-34c0-6 5-11 11-11h33v-33c0-6 5-11 11-11h34v-34c0-6 5-11 11-11h45c6 0 11 5 11 11Z" fill="#6978FF"/>
  </g>
  <g clip-path="url(#e)">
    <path d="M3834 4505c0 6-5 11-11 11h-34v34c0 6-5 11-11 11h-33v33c0 7-5 12-12 12h-33v33c0 6-5 11-11 11h-45a11 11 0 1 1 0-22h34v-34c0-6 5-11 11-11h33v-33c0-6 5-11 11-11h34v-34c0-6 5-11 11-11h45c6 0 11 5 11 11Z" fill="#00FF19"/>
  </g>
  <path d="M1858 4014v-11a72 72 0 0 0-4-21l-4-9-7-7c-2-3-5-4-8-5-3-2-7-2-11-2a30 30 0 0 0-19 7l-7 7-4 9a57 57 0 0 0-4 21v11a70 70 0 0 0 4 21l4 9 7 8a29 29 0 0 0 19 6l11-1a29 29 0 0 0 15-13l4-9 3-10 1-11Zm-12-11v11a86 86 0 0 1-2 15l-3 7-4 6a18 18 0 0 1-13 6 18 18 0 0 1-13-6l-4-6a43 43 0 0 1-4-15l-1-7v-11a79 79 0 0 1 2-15l3-7 4-6 5-4 8-1a18 18 0 0 1 13 5l4 6a42 42 0 0 1 4 15l1 7Zm31 82h12v-35a28 28 0 0 0 6 5l6 3h8a25 25 0 0 0 21-10c3-3 4-7 6-12l1-14v-2l-1-14c-2-5-3-9-6-12a25 25 0 0 0-21-10l-7 1a24 24 0 0 0-14 8v-8h-11v100Zm48-65v2l-1 10-4 8c-1 3-3 5-6 6-2 2-5 2-9 2h-5l-5-3-4-3-2-3v-35l3-4 4-3 4-2a21 21 0 0 1 14 1l6 6 4 8 1 10Zm65 38a32 32 0 0 0 28-14l-7-5a25 25 0 0 1-20 9 22 22 0 0 1-21-14l-2-9h52v-6l-2-14c-1-4-3-8-6-11-2-3-6-6-10-8l-13-2-12 2-11 7-7 12c-2 5-3 10-3 16v3c0 5 1 9 3 13 1 5 4 8 7 12l10 7c5 2 9 2 14 2Zm-1-64a18 18 0 0 1 14 6l3 7 1 7h-38l2-8 5-7a18 18 0 0 1 13-5Zm52 63h12v-52a24 24 0 0 1 7-7 21 21 0 0 1 11-4l7 1 5 3c2 1 3 3 3 5l2 9v45h12v-46l-2-12c-1-4-3-6-5-9l-8-5a31 31 0 0 0-18 0 26 26 0 0 0-15 11v-11h-11v72Zm135-37v-10h-51v10h51Zm79 13a13 13 0 0 1-6 11l-6 3a29 29 0 0 1-16 0 20 20 0 0 1-14-18h-12a27 27 0 0 0 9 20c4 3 8 6 12 7a41 41 0 0 0 25 1l11-5 7-8c2-3 3-7 3-12 0-4-1-8-3-11-1-3-4-6-7-8-3-3-6-5-10-6a97 97 0 0 0-17-7l-7-3-5-5c-2-2-3-4-3-7l2-7 4-5 6-3a24 24 0 0 1 15 1 17 17 0 0 1 10 9l2 8h13a28 28 0 0 0-10-21c-3-3-7-5-11-6a35 35 0 0 0-23 0c-4 1-7 2-10 5l-8 8c-2 3-2 7-2 11s0 8 2 11l7 8 10 6a115 115 0 0 0 18 6l7 4 5 5c2 2 2 5 2 8Zm31 52h13v-35a28 28 0 0 0 6 5l6 3h8a25 25 0 0 0 21-10l5-12c2-4 2-9 2-14v-2c0-5 0-10-2-14l-5-12a25 25 0 0 0-21-10l-8 1a24 24 0 0 0-13 8v-8h-12v100Zm49-65v2l-1 10-4 8c-1 3-4 5-6 6-2 2-5 2-9 2h-6l-4-3c-2 0-3-1-4-3l-2-3v-35c0-2 1-3 3-4l3-3 5-2a21 21 0 0 1 14 1l6 6 4 8 1 10Zm81 37h13v-1l-2-7-1-8v-33l-2-11a22 22 0 0 0-15-12 41 41 0 0 0-24 1l-9 4-5 7c-2 3-2 5-2 8h12l1-4 3-4 5-2 7-1 7 1 5 2a13 13 0 0 1 5 11v5h-14l-13 2-11 4-7 8-2 10 2 9 5 6 8 5a31 31 0 0 0 28-4l4-4v5l2 3Zm-22-9-6-1-5-3-3-4a14 14 0 0 1 0-10l4-3c1-2 4-3 7-4l11-1h12v15a18 18 0 0 1-8 7 25 25 0 0 1-12 4Zm87 0c-4 0-7 0-10-2l-6-6c-2-2-3-5-3-8l-1-10v-2l1-10c0-3 1-5 3-8l6-6 10-2a19 19 0 0 1 12 5 16 16 0 0 1 6 11h11a24 24 0 0 0-8-19l-9-5c-4-2-8-2-12-2-5 0-10 1-14 3l-11 7-6 12-2 14v2l2 14 6 12c3 3 7 6 11 7 4 2 9 3 14 3a32 32 0 0 0 20-7l7-7 2-10h-11l-2 6-4 4c-2 2-3 3-6 3l-6 1Zm83 10a32 32 0 0 0 28-14l-7-5a25 25 0 0 1-20 9 22 22 0 0 1-21-14l-2-9h51v-6l-1-14-6-11-10-8-14-2a31 31 0 0 0-22 9l-8 12-2 16v3c0 5 0 9 2 13l7 12 11 7c4 2 9 2 14 2Zm-2-64c4 0 6 0 9 2l5 4 4 7 1 7h-39l3-8 4-7a18 18 0 0 1 13-5Zm-951-526h248v257h-248z" fill="#fff"/>
  <path stroke="#000" d="M1611 3468h248v257h-248z"/>
  <path fill="#fff" stroke="#000" stroke-width="12" d="M3246 3474h237v225h-237zm-293 0h237v452h-237z"/>
  <path fill="#fff" d="M1952 3468h421v257h-421z"/>
  <path stroke="#000" d="M1952 3468h421v257h-421z"/>
  <path fill="#fff" d="M2469 3468h269v257h-269z"/>
  <path stroke="#000" d="M2469 3468h269v257h-269z"/>
  <g clip-path="url(#f)">
    <path d="M2706 3522c0 6-5 11-11 11h-33v34c0 6-5 11-12 11h-33v33c0 7-5 12-11 12h-34v33c0 6-5 11-11 11h-44a11 11 0 1 1 0-22h33v-34c0-6 5-11 11-11h34v-33c0-6 5-11 11-11h33v-34c0-6 5-11 11-11h45c6 0 11 5 11 11Z" fill="#E0CA00"/>
  </g>
  <g clip-path="url(#g)">
    <mask id="h" style="mask-type:alpha" maskUnits="userSpaceOnUse" x="1699" y="3504" width="139" height="163">
      <path d="M1728 3545a16 16 0 1 0 0-33 16 16 0 0 0 0 33Zm-21 24h41l-8 90h-24l-9-90Zm74 0h40l9 45h-13l-4 45h-24l-4-45h-12l8-45Z" fill="#fff" stroke="#fff" stroke-width="16.3" stroke-linecap="round" stroke-linejoin="round"/>
    </mask>
    <g mask="url(#h)">
      <path d="M1667 3488h195v195h-195v-195Z" fill="#000"/>
    </g>
  </g>
  <g clip-path="url(#i)">
    <mask id="j" style="mask-type:alpha" maskUnits="userSpaceOnUse" x="3256" y="3512" width="139" height="163">
      <path d="M3358 3553a16 16 0 1 0 0-33 16 16 0 0 0 0 33Zm-94 24h41l-8 90h-24l-9-90Zm74 0h40l9 45h-13l-4 45h-24l-4-45h-12l8-45Z" fill="#fff" stroke="#fff" stroke-width="16.3" stroke-linecap="round" stroke-linejoin="round"/>
    </mask>
    <g mask="url(#j)">
      <path d="M3224 3496h415v195h-415v-195Z" fill="#000"/>
    </g>
  </g>
  <path d="m2080 3628 11 14a48 48 0 0 1-91-22c0-19 12-36 28-43l2 17a32 32 0 0 0 18 58c15 0 27-10 31-24h1Zm45 1-10 5-23-30h-37l-1-16h26v-16h-28l-2-24c8-1 14-8 14-16a16 16 0 1 0-32 0v1l9 87h43l26 35 22-11-7-15Z" fill="#000"/>
  <g clip-path="url(#k)">
    <path d="M3129 3534c5-5 2-14-6-14h-108c-7 0-11 9-5 14l52 52v43h-12c-7 0-12 5-12 12 0 2 2 3 4 3h55c2 0 3-1 3-3 0-7-5-12-11-12h-11v-43l51-52Zm-60 38-36-36h73l-37 36Z" fill="#000"/>
  </g>
  <path d="M2223 3633c-2 0-4 0-5-2-2-1-3-3-3-6 0-2 1-4 3-5 1-2 3-2 5-2s4 0 6 2l2 5-2 6c-2 2-4 2-6 2Zm32 0c-3 0-4 0-6-2l-2-6 2-5c2-2 3-2 6-2 2 0 4 0 5 2 2 1 2 3 2 5 0 3 0 5-2 6-1 2-3 2-5 2Zm31 0c-2 0-4 0-6-2l-2-6 2-5c2-2 4-2 6-2s4 0 6 2l2 5-2 6c-2 2-4 2-6 2Zm-86-31v-16c0-14 4-26 13-36s20-16 34-18v-17h15v17c14 2 25 8 34 18s14 22 14 36v16h-110Zm23 55-5-2-3-6 3-6 5-2 6 2 2 6-2 6-6 2Zm32 0-6-2-2-6 2-6 6-2 5 2c2 2 2 4 2 6s0 4-2 6l-5 2Zm31 0-6-2-2-6 2-6 6-2 6 2 2 6-2 6-6 2ZM868 6306h31l12-2c4-2 7-3 10-6l8-8 2-12a24 24 0 0 0-5-15 25 25 0 0 0-12-8v-1l6-3 4-4 3-6 2-7c0-4-1-8-3-11-2-4-4-6-7-8l-10-5-12-1h-29v97Zm12-46h20l7 2c3 0 5 1 6 3l4 5 2 8a16 16 0 0 1-6 12 21 21 0 0 1-14 5h-19v-35Zm0-10v-31h17l7 1c3 1 5 1 6 3a14 14 0 0 1 6 11l-1 7-5 5-6 3-6 1h-18Zm102 57c7 0 13-2 18-4 4-3 8-6 10-10l-7-6a25 25 0 0 1-20 10l-9-2c-3-1-6-3-7-5l-5-7-2-10h51v-5c0-6 0-10-2-14l-5-12-10-7c-4-2-8-3-14-3l-12 3c-4 1-7 4-10 7s-6 7-8 12l-2 15v3c0 5 0 10 2 14l7 11c3 3 7 6 11 7 4 2 9 3 14 3Zm-2-65 9 2 5 5c2 1 3 4 4 6l1 7v1h-39l3-9 4-6 6-4 7-2Zm54-9v11h25v51h-25v11h60v-11h-23v-62h-37Zm23-18 2 5 5 2 6-2 2-5-1-4-1-2-3-1-3-1-3 1-2 1-2 3v3Zm55 54v1c0 5 0 10 2 15 1 4 3 8 6 11 2 4 5 6 9 8 3 2 7 3 11 3a30 30 0 0 0 14-3l3-3 3-3v7l-1 8a16 16 0 0 1-10 10 23 23 0 0 1-13 0 22 22 0 0 1-10-4l-4-5-7 7 6 6 7 4 8 2a35 35 0 0 0 19-1l9-6 6-9c2-4 3-8 3-13v-71h-12v8a26 26 0 0 0-6-5l-6-3a29 29 0 0 0-20 2l-10 7-5 12c-2 5-2 10-2 15Zm12 1v-1l1-10 4-9c1-2 3-4 6-5 2-2 5-2 9-2a19 19 0 0 1 10 2 19 19 0 0 1 6 8v33l-2 4-4 3a17 17 0 0 1-10 3c-4 0-7 0-9-2-3-1-5-3-6-5l-4-9-1-10Zm104 37c7 0 13-2 18-4 4-3 8-6 10-10l-7-6a25 25 0 0 1-20 10l-10-2-7-5-4-7-2-10h51v-5c0-6 0-10-2-14l-5-12-10-7c-4-2-9-3-14-3l-12 3c-4 1-7 4-10 7s-6 7-8 12c-2 4-3 9-3 15v3c0 5 1 10 3 14l7 11c3 3 7 6 11 7 4 2 9 3 14 3Zm-2-65 8 2c3 1 5 3 6 5 2 1 3 4 4 6l1 7v1h-39l3-9c1-2 2-5 4-6l6-4 7-2Zm-311 170c-5 0-9 1-14 4-4 2-7 5-10 9v-2l-1-10h-11v73h12v-47l3-6a19 19 0 0 1 11-7l8-2a54 54 0 0 1 13 2l2-12-5-1-8-1Zm32 37v1c0 5 0 10 2 15 1 4 4 8 7 11 2 4 6 6 10 8s8 3 14 3c5 0 9-1 13-3s8-4 11-8c2-3 5-7 6-11 2-5 2-10 2-15v-1c0-5 0-10-2-15-1-4-4-8-6-11-3-4-7-6-11-8s-8-3-14-3a32 32 0 0 0-23 11c-3 3-6 7-7 11-2 5-2 10-2 15Zm12 1v-1l1-10 4-9 7-6 8-2 9 2 7 6 4 9 1 10v1l-1 10c-1 4-2 7-4 9l-7 6-8 2-9-2-7-6c-2-2-3-5-4-9l-1-10Zm70-1v1c0 5 0 10 2 15 1 4 4 8 6 11a33 33 0 0 0 24 11c6 0 10-1 14-3s8-4 11-8l6-11 2-15v-1l-2-15-6-11c-3-4-7-6-11-8s-9-3-14-3a32 32 0 0 0-24 11c-2 3-5 7-6 11-2 5-2 10-2 15Zm12 1v-1l1-10 4-9 6-6 9-2 9 2 7 6 4 9 1 10v1l-1 10c-1 4-2 7-4 9l-7 6-8 2a18 18 0 0 1-16-8c-2-2-3-5-4-9l-1-10Zm79-37h-11v73h11v-58l1-2 2-1 3-2a13 13 0 0 1 7 0l3 2 1 3 1 4v54h11v-56l1-3 2-2 2-2h8l3 2 1 3 1 4v54h11v-54l-1-9-3-7-5-3a19 19 0 0 0-16 2 18 18 0 0 0-5 5 14 14 0 0 0-4-5l-4-2-6-1-8 2-6 6v-7Zm575-156-22-48h-14l30 60 1 37h11v-37l31-60h-14l-23 48Zm86 50c7 0 13-2 17-4 5-3 9-6 11-10l-7-6a25 25 0 0 1-21 10l-9-2-7-5-4-7-2-10h51v-5l-2-14c-1-5-3-9-6-12-2-3-5-5-9-7s-9-3-14-3l-12 3c-4 1-7 4-11 7-3 3-5 7-7 12-2 4-3 9-3 15v3c0 5 1 10 3 14 1 4 4 8 7 11s6 6 11 7c4 2 9 3 14 3Zm-2-65a18 18 0 0 1 14 7l3 6 2 7v1h-39l2-9 5-6 6-4 7-2Zm54-39v11h24v81h-24v11h60v-11h-23v-92h-37Zm82 0v11h24v81h-24v11h60v-11h-24v-92h-36Zm76 66v1l2 15 7 11c3 4 6 6 10 8s9 3 14 3 10-1 14-3 7-4 10-8c3-3 5-7 6-11l3-15v-1l-3-15a30 30 0 0 0-17-19c-3-2-8-3-13-3a32 32 0 0 0-24 11l-7 11-2 15Zm12 1v-1l2-10 4-9 6-6 9-2 9 2 6 6 4 9 1 10v1l-1 10c-1 4-2 7-4 9l-6 6-9 2-9-2-6-6c-2-2-3-5-4-9l-2-10Zm81 36h9l11-45 2-11 2 11 11 45h10l15-73h-11l-8 46-1 12-2-12-12-46h-8l-11 46-2 11-1-11-9-46h-11l16 73Zm-370 106c-5 0-10 1-14 4-4 2-8 5-11 9v-12h-12v73h13v-47l3-6a19 19 0 0 1 10-7l8-2a54 54 0 0 1 14 2l2-12-6-1-7-1Zm31 37v1l3 15c1 4 3 8 6 11 3 4 6 6 10 8s9 3 14 3 10-1 14-3 7-4 10-8l7-11 2-15v-1l-2-15-7-11c-3-4-6-6-10-8s-9-3-14-3a32 32 0 0 0-24 11c-3 3-5 7-6 11l-3 15Zm13 1v-1l1-10 4-9 6-6 9-2 9 2 6 6 4 9 2 10v1l-2 10c-1 4-2 7-4 9l-6 6-9 2-9-2-6-6c-2-2-3-5-4-9l-1-10Zm69-1v1l3 15c1 4 3 8 6 11 3 4 6 6 10 8s9 3 14 3 10-1 14-3 7-4 10-8l7-11 2-15v-1l-2-15-7-11c-3-4-6-6-10-8s-9-3-14-3a32 32 0 0 0-24 11c-3 3-5 7-6 11l-3 15Zm13 1v-1l1-10 4-9 6-6 9-2 9 2 6 6 4 9 2 10v1l-2 10c-1 4-2 7-4 9l-6 6-9 2-9-2-6-6c-2-2-3-5-4-9l-1-10Zm78-37h-11v73h12v-58l1-2 2-1 2-2a13 13 0 0 1 8 0l2 2 2 3v58h12v-56l1-3 1-2 3-2h7c2 0 2 1 3 2l2 3v58h12v-54l-1-9-4-7-5-3a19 19 0 0 0-16 2 18 18 0 0 0-5 5 13 13 0 0 0-4-5l-4-2-5-1-9 2-5 6-1-7Zm987-431h333v293h-333z" fill="#000"/>
  <g clip-path="url(#l)">
    <path d="M3174 6072c0 6-5 11-11 11h-34v34c0 6-5 11-11 11h-33v33c0 7-5 12-12 12h-33v33c0 6-5 11-11 11h-45a11 11 0 1 1 0-22h34v-34c0-6 5-11 11-11h33v-33c0-6 5-11 11-11h34v-34c0-6 5-11 11-11h45c6 0 11 5 11 11Z" fill="#00FF19"/>
  </g>
  <path fill="#000" d="M3395 5661h108v68h-108zm317 312v-108h92v108zm92 97v124h-92v-124zM2407 844h1035v355H2407zm-366 355h292v356h-292z"/>
  <path fill="#000" d="M2039 1553h453v389h-453z"/>
  <path fill="#000" d="M2490 1639h262v156h-262zm262-440h178v1465h-178zm240 73h450v858h-450z"/>
  <path fill="#000" d="M2155 2412h775v252h-775zm775-993h63v108h-63zm0 318h64v109h-64zm643-721c-4 3-4 8 0 11l51 51a8 8 0 0 0 11-11l-45-46 45-45a8 8 0 0 0-11-11l-51 51Zm183-3h-178v16h178v-16Z"/>
  <path d="m3129 988-46-46-4-2h-66c-7 0-13 6-13 13v157c0 7 6 13 13 13h105c7 0 13-6 13-13V992l-2-4Zm-50-32 36 36h-36v-36Zm39 154h-105V953h52v39c0 7 6 13 14 13h39v105Z" fill="#fff"/>
  <path d="M3026 1071h79v13h-79v-13Zm0-39h79v13h-79v-13Z" fill="#fff"/>
  <path d="M3546 1547c-4 0-7-1-10-3-3-1-5-3-6-6l-4-8-1-9v-3l1-9 4-9 6-6 10-2a19 19 0 0 1 12 5 16 16 0 0 1 5 11h12l-2-10a26 26 0 0 0-16-14l-11-2c-6 0-11 1-15 3s-7 4-10 8c-3 3-5 7-6 11l-2 14v3l2 13c1 5 3 9 6 12l10 8c4 2 9 3 15 3a32 32 0 0 0 26-15l3-9h-12l-1 5-4 5-6 3-6 1Zm47-28v1l3 15c1 4 3 8 6 11s6 6 11 8a32 32 0 0 0 27 0l10-8 7-11 2-15v-1l-2-15-7-11c-3-4-6-6-10-8s-9-3-14-3a32 32 0 0 0-24 11c-3 3-5 7-6 11-2 5-3 9-3 15Zm13 1v-1l1-10 4-9 6-6 9-2 9 2 7 6c1 3 3 5 3 9l2 10v1l-2 10c0 4-2 6-3 9l-7 6-9 2a18 18 0 0 1-15-8l-4-9-1-10Zm73 35h12v-51a24 24 0 0 1 7-8 21 21 0 0 1 12-4l7 1 5 3 3 6 1 8v45h12v-45c0-5 0-9-2-13-1-3-2-6-5-8-2-3-4-4-7-5a31 31 0 0 0-19-1 26 26 0 0 0-14 11l-1-11h-11v72Zm100 0h13v-62h27v-10h-27v-5l1-8 3-5c2-2 3-3 6-3l7-1h8l6 2 2-10a53 53 0 0 0-7-2 67 67 0 0 0-11-1l-11 2a24 24 0 0 0-15 14l-2 12v5h-20v10h20v62Zm96 2c7 0 13-2 17-4 5-3 9-7 11-10l-7-6a25 25 0 0 1-21 10 22 22 0 0 1-20-14c-2-3-2-6-3-10h52v-6l-2-14c-1-4-3-8-6-11-2-3-5-6-9-7-4-2-9-3-14-3l-12 2-11 8-7 11c-2 5-3 10-3 16v3c0 5 1 10 3 14 1 4 4 8 7 11l11 7c4 2 9 3 14 3Zm-2-65a18 18 0 0 1 14 6c1 2 3 4 3 7l2 7v1h-39l2-9 5-7a18 18 0 0 1 13-5Zm99-10c-5 0-10 1-14 3l-11 10v-12h-12v72h12v-46l3-6a19 19 0 0 1 11-8l8-1a54 54 0 0 1 14 2l2-12-6-2h-7Zm67 75c7 0 12-2 17-4 5-3 9-7 11-10l-8-6a25 25 0 0 1-20 10 22 22 0 0 1-21-14l-2-10h52v-6l-2-14c-1-4-3-8-6-11-2-3-6-6-10-7a31 31 0 0 0-26 0l-10 7-7 11c-2 5-3 10-3 16v3c0 5 1 10 3 14 1 4 4 8 7 11l11 7c4 2 8 3 14 3Zm-2-65 8 2 6 4 3 7 2 7v1h-39l2-9 5-7a18 18 0 0 1 13-5Zm52 63h12v-51a24 24 0 0 1 7-8 21 21 0 0 1 11-4l7 1 5 3 4 6 1 8v45h12v-45l-2-13-5-8c-2-3-5-4-8-5a31 31 0 0 0-18-1 26 26 0 0 0-14 11l-1-11h-11v72Zm112-8c-4 0-7-1-9-3-3-1-5-3-7-6l-3-8-1-9v-3l1-9 3-9 7-6 9-2a19 19 0 0 1 13 5 16 16 0 0 1 5 11h12c0-4-1-7-3-10a25 25 0 0 0-15-14l-12-2c-5 0-10 1-14 3s-8 4-10 8c-3 3-5 7-6 11-2 5-3 9-3 14v3c0 5 1 9 3 13 1 5 3 9 6 12 2 3 6 6 10 8s9 3 14 3a32 32 0 0 0 27-15l3-9h-12l-2 5-4 5-5 3-7 1Zm83 10c7 0 13-2 18-4 5-3 8-7 11-10l-8-6a25 25 0 0 1-20 10 22 22 0 0 1-21-14l-2-10h52v-6l-2-14c-1-4-3-8-6-11s-6-6-10-7a31 31 0 0 0-26 0l-10 7-7 11c-2 5-3 10-3 16v3l2 14 7 11 11 7c5 2 9 3 14 3Zm-1-65a18 18 0 0 1 14 6l3 7 1 7v1h-38l2-9 5-7a18 18 0 0 1 13-5Zm-721 170c-5 0-10 1-14 3l-10 10v-2l-1-10h-12v72h13v-46l3-6a19 19 0 0 1 10-8l9-1a54 54 0 0 1 13 2l2-12-6-2h-7Zm31 37v1l3 15c1 4 3 8 6 11s6 6 11 8a32 32 0 0 0 27 0l10-8 7-11 2-15v-1l-2-15-7-11c-3-4-6-6-10-8s-9-3-14-3a32 32 0 0 0-24 11c-3 3-5 7-6 11-2 5-3 9-3 15Zm13 1v-1l1-10 4-9 6-6 9-2 9 2 7 6c1 3 3 5 3 9l2 10v1l-2 10c0 4-2 6-3 9l-7 6-9 2a18 18 0 0 1-15-8l-4-9-1-10Zm69-1v1l3 15c1 4 3 8 6 11l10 8c5 2 9 3 14 3s10-1 14-3l10-8 7-11 2-15v-1l-2-15-7-11c-3-4-6-6-10-8s-9-3-14-3a32 32 0 0 0-24 11c-3 3-5 7-6 11-2 5-3 9-3 15Zm13 1v-1l1-10 4-9 6-6 9-2 9 2 7 6 3 9 2 10v1l-2 10c0 4-2 6-3 9l-7 6-9 2a18 18 0 0 1-15-8l-4-9-1-10Zm78-37h-11v72h12v-57l1-2 2-2 2-1a13 13 0 0 1 8 0l2 1 2 3v58h12v-55l1-3 2-2 2-2 4-1 4 1 2 2 2 2v58h12v-53l-1-9-4-7-5-3a19 19 0 0 0-16 1 17 17 0 0 0-5 6 14 14 0 0 0-4-6l-4-1-5-1-8 2-6 6-1-7Z" fill="#000"/>
  <g clip-path="url(#m)">
    <path d="M2669 949c0 6-5 11-11 11h-34v34c0 6-5 11-11 11h-34v33c0 6-4 11-11 11h-33v34c0 6-5 11-11 11h-45a11 11 0 1 1 0-22h34v-34c0-6 5-11 11-11h33v-33c0-6 5-11 11-11h34v-34c0-6 5-11 11-11h45c6 0 11 5 11 11Z" fill="#FF5151"/>
  </g>
  <path d="M1563 1727c-4 0-7 0-9-2l-7-6-3-8-1-10v-2l1-10 3-8 7-6c2-2 5-2 9-2a19 19 0 0 1 13 4 16 16 0 0 1 5 12h12a24 24 0 0 0-9-19c-2-2-5-4-9-5-4-2-8-2-12-2l-14 2c-4 2-8 5-10 8l-6 12c-2 4-3 9-3 14v2c0 5 1 10 3 14 1 4 3 8 6 11 2 4 6 6 10 8s9 3 14 3a32 32 0 0 0 21-7l6-8c2-2 3-6 3-9h-12l-2 6-4 4c-1 2-3 3-5 3l-7 1Zm64-52v-41h-13v102h13v-52a24 24 0 0 1 7-7 20 20 0 0 1 11-4l8 1 5 4 3 5 1 7v46h12v-45l-2-13-5-9-8-5a30 30 0 0 0-18 0 24 24 0 0 0-11 7l-3 4Zm71-11v11h25v50h-25v11h61v-11h-24v-61h-37Zm23-19 2 5 6 2 5-2 2-5v-3l-2-2-2-2h-6l-3 2-1 2-1 3Zm59-11v10h25v81h-25v11h61v-11h-24v-91h-37Zm82 0v10h25v81h-25v11h61v-11h-24v-91h-37Zm-282 209c-5 0-10 1-14 3s-8 5-11 9v-11h-12v72h12v-46l3-6a20 20 0 0 1 11-8l8-1a56 56 0 0 1 14 1l1-12-5-1h-7Zm31 36v2l2 14 7 12c3 3 6 6 10 7 4 2 9 3 14 3s9-1 14-3c4-1 7-4 10-7 3-4 5-7 6-12 2-4 3-9 3-14v-2c0-5-1-10-3-14-1-5-3-9-6-12s-6-6-11-8c-4-2-8-2-13-2a32 32 0 0 0-24 10c-3 3-5 7-7 12l-2 14Zm12 2v-2l2-10c0-3 2-6 3-8 2-3 4-5 7-6 2-2 5-2 9-2 3 0 6 0 9 2l6 6 4 8 1 10v2l-1 10-4 8-6 6c-3 2-6 2-9 2a18 18 0 0 1-16-8c-1-2-3-5-3-8l-2-10Zm70-2v2l2 14 7 12c3 3 6 6 10 7a32 32 0 0 0 27 0c4-1 8-4 11-7 3-4 5-7 6-12 2-4 3-9 3-14v-2c0-5-1-10-3-14-1-5-3-9-6-12l-11-8c-4-2-8-2-13-2a32 32 0 0 0-24 10c-3 3-5 7-7 12l-2 14Zm12 2v-2l2-10c0-3 2-6 3-8 2-3 4-5 7-6 2-2 5-2 9-2 3 0 6 0 9 2l6 6 4 8 1 10v2l-1 10-4 8-6 6c-3 2-6 2-9 2a18 18 0 0 1-16-8c-1-2-3-5-3-8l-2-10Zm79-37h-11v72h12v-57l1-2 1-2 3-1a13 13 0 0 1 7 0l3 1 1 3 1 4v54h12v-58l2-3 3-1 4-1 3 1 3 1 1 3 1 4v54h12v-54l-2-9-3-6c-1-2-3-3-5-3a19 19 0 0 0-16 1 16 16 0 0 0-5 5 13 13 0 0 0-4-5l-4-2h-5c-4 0-7 0-9 2l-6 6v-7Zm-467-618h-15v97h12v-39l-1-39 16 51h8l17-53-1 41v39h12v-97h-15l-17 48-16-48Zm116 97h13v-1l-2-7-1-8v-34c0-4 0-7-2-10a22 22 0 0 0-15-12 41 41 0 0 0-23 0c-4 1-7 3-9 5-3 2-5 4-6 7l-2 8h12l1-5 4-3 4-3 7-1 7 1 5 3a13 13 0 0 1 5 10v6h-13l-14 1-10 5c-3 2-6 4-7 7-2 3-2 7-2 11l1 8 5 7 8 4a31 31 0 0 0 28-4l4-3 1 4 1 4Zm-22-10-6-1-5-2-2-4a14 14 0 0 1 0-10l3-4c2-1 4-3 7-3l12-1h11v14l-3 4a22 22 0 0 1-10 6l-7 1Zm105-10-1 4-2 3-6 3a29 29 0 0 1-15 0l-5-2-5-4-2-7h-12c0 3 0 6 2 9 1 3 3 6 6 8l10 5 13 2 11-2 10-4 6-7a18 18 0 0 0 0-16l-5-6-9-5-12-3-9-2-5-2-3-3a9 9 0 0 1 1-8c0-1 1-3 3-3l4-3a25 25 0 0 1 14 0l5 3 4 4 1 5h12l-2-9c-1-3-3-5-6-7-2-2-5-4-9-5a39 39 0 0 0-32 4l-6 7a17 17 0 0 0 0 16l6 6a86 86 0 0 0 20 7l8 3 6 2 3 4 1 3Zm82 0a8 8 0 0 1-3 7l-6 3a29 29 0 0 1-15 0l-6-2-4-4-2-7h-12c0 3 0 6 2 9 1 3 3 6 6 8l10 5 13 2 11-2 10-4 6-7a18 18 0 0 0 0-16l-6-6-8-5-12-3-9-2-5-2-3-3a9 9 0 0 1 0-8l3-3 5-3a25 25 0 0 1 14 0l5 3 4 4 1 5h12l-2-9c-1-3-3-5-6-7-2-2-5-4-9-5a39 39 0 0 0-32 4l-6 7a17 17 0 0 0 0 16l6 6 8 4 12 3 8 3 6 2 3 4 1 3Zm81 20h13v-1l-2-7-1-8v-34c0-4 0-7-2-10a22 22 0 0 0-15-12 41 41 0 0 0-24 0l-8 5c-3 2-5 4-6 7l-2 8h12l1-5 3-3 5-3 7-1 7 1 5 3a13 13 0 0 1 5 10v6h-14l-13 1-11 5c-2 2-5 4-6 7-2 3-3 7-3 11l2 8 5 7 8 4a31 31 0 0 0 28-4l4-3 1 4 1 4Zm-22-10-6-1-5-2-2-4a14 14 0 0 1 0-10c0-2 1-3 3-4s4-3 7-3l11-1h12v14l-3 4a22 22 0 0 1-10 6l-7 1Zm54-27v1l2 15c2 4 3 8 6 11 2 4 5 6 9 8s7 3 12 3a30 30 0 0 0 13-3l4-3 3-3v7l-2 8a16 16 0 0 1-9 10 23 23 0 0 1-13 0 21 21 0 0 1-10-4l-5-5-6 8c1 2 3 4 6 5l7 4 7 2a35 35 0 0 0 19-1c4-1 7-3 10-6l6-9 2-13v-70h-11l-1 7a25 25 0 0 0-5-5l-7-3a29 29 0 0 0-20 2c-4 2-7 4-9 8-3 3-4 7-6 11l-2 15Zm13 1v-1l1-10c0-3 2-6 3-8l6-6c3-2 6-2 9-2a19 19 0 0 1 10 3c2 0 3 2 4 3l3 4v33l-3 4-4 4a17 17 0 0 1-10 2c-3 0-6 0-9-2l-6-5c-1-3-3-5-3-9l-1-10Zm103 37a32 32 0 0 0 28-14l-7-6-8 7a25 25 0 0 1-21 1l-7-5-5-7-2-9v-1h52v-5l-2-14c-1-5-3-8-6-12l-10-7a31 31 0 0 0-36 7c-3 3-5 7-7 12-2 4-3 9-3 15v3l2 14 7 11c3 3 7 6 11 7 5 2 9 3 14 3Zm-1-65 8 2 6 5 3 6 1 7v1h-38l2-9 5-6c1-2 3-3 6-4l7-2Zm99 44v4l-2 3-6 3a29 29 0 0 1-15 0l-6-2-4-4-2-7h-13l3 9c1 3 3 6 6 8l9 5 13 2 12-2c4-1 7-2 9-4 3-2 5-4 6-7a18 18 0 0 0 1-16l-6-6-9-5-12-3-8-2-5-2-3-3a9 9 0 0 1 0-8l3-3 5-3a25 25 0 0 1 14 0l5 3 3 4 2 5h12l-2-9-6-7c-2-2-5-4-9-5a39 39 0 0 0-32 4l-6 7a17 17 0 0 0 0 16l6 6 8 4c4 2 7 3 12 3l8 3 6 2 2 4 1 3Z" fill="#000"/>
  <mask id="n" style="mask-type:alpha" maskUnits="userSpaceOnUse" x="2496" y="2460" width="139" height="163">
    <path d="M2525 2501a16 16 0 1 0 0-33 16 16 0 0 0 0 33Zm73 0a16 16 0 1 0 0-33 16 16 0 0 0 0 33Zm-93 24h40l-8 90h-24l-8-90Zm73 0h41l8 45h-12l-4 45h-25l-4-45h-12l8-45Z" fill="#fff" stroke="#fff" stroke-width="16.3" stroke-linecap="round" stroke-linejoin="round"/>
  </mask>
  <g mask="url(#n)">
    <path d="M2464 2444h195v195h-195v-195Z" fill="#fff"/>
  </g>
  <path fill="#000" d="M2930 2203h573v100h-573zm674-309v409h-100v-409zm-1196 193h345v265h-345z"/>
  <g clip-path="url(#o)">
    <path d="M2681 2153c0 6-5 11-11 11h-34v34c0 6-5 11-11 11h-33v33c0 6-5 11-12 11h-33v34c0 6-5 11-11 11h-45a11 11 0 1 1 0-22h34v-34c0-6 5-11 11-11h33v-33c0-7 5-12 11-12h34v-33c0-6 5-11 11-11h45c6 0 11 5 11 11Z" fill="#6978FF"/>
  </g>
  <path d="m2282 2585-6-2-2-6 2-5 6-3 6 3 2 5-2 6-6 2Zm32 0-6-2c-2-2-2-3-2-6 0-2 0-4 2-5 1-2 3-3 6-3 2 0 4 1 5 3 2 1 2 3 2 5 0 3 0 4-2 6l-5 2Zm31 0-6-2-2-6 2-5 6-3 6 3 2 5-2 6-6 2Zm-87-31v-16c0-14 5-26 14-36s20-16 34-18v-17h15v17c14 2 25 8 34 18s14 22 14 36v16h-111Zm24 55-6-2-2-6 2-6 6-2 6 2 2 6-2 6-6 2Zm32 0-6-2c-2-2-2-4-2-6s0-4 2-6l6-2 5 2c2 2 2 4 2 6s0 4-2 6l-5 2Zm31 0-6-2-2-6 2-6 6-2 6 2 2 6-2 6-6 2Z" fill="#fff"/>
  <path d="M3900 1075a32 32 0 0 0 28-14l-7-6c-2 3-5 6-9 7a25 25 0 0 1-20 1l-8-5-4-7-2-9v-1h51v-5c0-5 0-10-2-14-1-5-3-8-5-11-3-4-6-6-10-8s-8-3-14-3l-12 3-10 7c-3 3-6 7-8 12-2 4-2 10-2 15v3c0 5 0 10 2 14l7 11 11 8 14 2Zm-2-64a18 18 0 0 1 14 6l4 6 1 8h-39l3-9 4-6 6-4 7-1Zm52 63h12v-52a24 24 0 0 1 7-8 21 21 0 0 1 12-3l7 1c2 0 3 1 5 3l3 5 1 8v46h12v-46l-1-12-5-9-8-5a31 31 0 0 0-19 0 26 26 0 0 0-11 6l-3 4-1-10h-11v72Zm111-90h-12v18h-19v9h19v39c0 5 0 9 2 12l4 7 8 5 9 1a61 61 0 0 0 16-2l3-2-1-8h-3a152 152 0 0 1-12 2l-6-1a11 11 0 0 1-7-7l-1-7v-39h28v-9h-28v-18Zm100 16a33 33 0 0 0-25 13l1-2-1-9h-12v72h13v-46c0-3 1-5 3-6a19 19 0 0 1 10-8l9-1a54 54 0 0 1 13 1l2-12-6-1-7-1Zm82 74h13v-1l-2-7v-41c0-4-1-8-3-11-1-3-3-6-6-8-2-2-5-3-9-4a41 41 0 0 0-23 0c-4 1-7 3-9 5l-6 7-2 8h13l1-5 3-3 5-3 6-1 7 1 6 3a13 13 0 0 1 4 10v6h-13l-14 2-10 4-7 7c-2 3-2 7-2 11l1 8 6 7 7 4a31 31 0 0 0 28-4l4-3 1 4 1 4Zm-22-10-6-1-4-2-3-4a14 14 0 0 1 0-10l3-4 8-3 11-1h11v14c0 2-1 3-3 5a21 21 0 0 1-10 5l-7 1Zm57 10h12v-52a23 23 0 0 1 7-8 21 21 0 0 1 12-3l6 1c3 0 4 1 6 3l3 5 1 8v46h12v-46c0-5 0-9-2-12-1-4-2-7-5-9-2-2-4-4-8-5a31 31 0 0 0-18 0 26 26 0 0 0-11 6l-3 4-1-10h-11v72Zm113-9-10-2-6-6-4-8-1-10v-3l1-9 4-8c1-3 3-5 6-6 2-2 6-2 10-2a19 19 0 0 1 12 4 16 16 0 0 1 5 12h12a24 24 0 0 0-8-19l-10-6-11-2c-6 0-11 1-15 3l-10 8c-3 4-5 7-6 12-2 4-2 9-2 13v3c0 5 0 10 2 14 1 4 3 8 6 11 3 4 6 6 10 8s9 3 15 3a32 32 0 0 0 26-15l3-9h-12l-1 6-4 4-6 3-6 1Zm83 10a32 32 0 0 0 28-14l-7-6a25 25 0 0 1-21 10l-9-2-7-5-4-7-3-9v-1h52v-5l-2-14c-1-5-3-8-6-11-2-4-6-6-9-8-4-2-9-3-14-3l-12 3-11 7c-3 3-5 7-7 12-2 4-3 10-3 15v3c0 5 1 10 3 14 1 4 4 8 7 11s6 6 11 8l14 2Zm-2-64a18 18 0 0 1 14 6l3 6 2 8h-39l2-9 5-6 6-4 7-1ZM1780 5834h72v80h-72zm-787 0h72v80h-72zM466 637v2c0 7 0 14 2 20l8 16a34 34 0 0 0 28 14 40 40 0 0 0 19-5l4-3 4-4v9c0 4 0 8-2 11a22 22 0 0 1-13 13 32 32 0 0 1-17 1 29 29 0 0 1-14-6l-6-6-9 10 8 8 10 5a47 47 0 0 0 19 3c6 0 11 0 16-2l13-8a38 38 0 0 0 12-30v-96h-15l-1 11a33 33 0 0 0-8-7l-9-4a40 40 0 0 0-27 2c-5 3-9 6-12 11-3 4-6 9-8 15s-2 13-2 20Zm16 2v-2l2-13 4-12 9-7c3-2 7-3 12-3a25 25 0 0 1 18 8l4 6v44l-4 6-5 5a24 24 0 0 1-14 4c-4 0-8-1-11-3-4-2-6-5-9-8l-4-11-2-14Zm161-51c-7 0-13 1-19 4-5 3-10 8-14 13v-2l-1-14h-16v98h17v-63l4-8a26 26 0 0 1 15-10l11-2a74 74 0 0 1 18 2l3-16-8-2h-10Zm43 49v2c0 7 1 14 3 20s5 11 9 16a41 41 0 0 0 32 14c7 0 13-1 19-4l14-10 8-16c2-6 3-13 3-20v-2c0-7-1-13-3-19l-8-16c-4-4-9-8-15-10-5-3-11-4-18-4a43 43 0 0 0-32 14c-4 4-7 10-9 16s-3 12-3 19Zm16 2v-2l2-13 5-12c3-3 5-6 9-8 3-2 7-3 12-3s9 1 12 3l9 8 5 12 2 13v2l-2 14-5 12-9 7c-3 2-7 3-12 3a25 25 0 0 1-21-10l-5-12-2-14Zm163 48h16v-98h-17v70l-4 6-4 5c-2 1-5 3-8 3a36 36 0 0 1-18 0c-3 0-5-2-7-4l-3-8-2-13v-59h-16v58l2 19c2 5 4 10 7 13s6 6 11 7a39 39 0 0 0 30-1l13-11v13Zm47 0h17v-70a33 33 0 0 1 9-10 28 28 0 0 1 16-5l9 1 7 4 4 7 2 11v62h16v-62c0-6 0-12-2-17l-7-11c-3-3-6-6-11-7a42 42 0 0 0-24-1 35 35 0 0 0-20 15l-1-15h-15v98Zm108-50v2c0 7 1 14 3 20 1 6 4 11 7 16l13 10c4 3 10 4 16 4s11-1 15-3c5-2 9-5 12-9l1 10h15V549h-17v50c-3-4-7-6-11-8s-9-3-15-3a35 35 0 0 0-29 14c-3 4-6 9-7 15-2 6-3 13-3 20Zm17 2v-2l1-13 5-12 8-7c3-2 7-3 12-3s10 1 14 4c3 2 6 5 8 9v46l-8 10c-4 2-9 4-14 4s-9-1-12-3l-8-8-5-11-1-14Zm233 48h16v-85h38v-13h-38v-6l2-11 5-8 7-4 10-1 10 1 9 2 2-14a70 70 0 0 0-9-2 88 88 0 0 0-14-1c-6 0-11 0-16 2a32 32 0 0 0-20 19l-2 17v6h-27v13h27v85Zm88-138v14h33v110h-33v14h82v-14h-32V549h-50Zm104 88v2c0 7 1 14 3 20s5 11 9 16a44 44 0 0 0 33 14c6 0 12-1 18-4l14-10 8-16c2-6 4-13 4-20v-2c0-7-2-13-4-19l-8-16a43 43 0 0 0-33-14 43 43 0 0 0-32 14c-4 4-7 10-9 16s-3 12-3 19Zm16 2v-2l2-13 5-12 9-8c3-2 7-3 12-3s9 1 12 3c4 2 7 5 9 8l5 12 2 13v2l-2 14-5 12c-2 3-5 5-9 7-3 2-7 3-12 3l-12-3-9-7-5-12-2-14Zm95-2v2c0 7 1 14 3 20s5 11 9 16a41 41 0 0 0 32 14c7 0 13-1 19-4l14-10 8-16c2-6 3-13 3-20v-2c0-7-1-13-3-19l-8-16a43 43 0 0 0-33-14 43 43 0 0 0-32 14c-4 4-7 10-9 16s-3 12-3 19Zm16 2v-2l2-13 5-12c3-3 5-6 9-8 3-2 7-3 12-3s9 1 12 3c4 2 6 5 9 8l5 12 2 13v2l-2 14-5 12c-2 3-5 5-9 7-3 2-7 3-12 3s-9-1-12-3l-9-7-5-12-2-14Zm163-51c-7 0-13 1-19 4-5 3-10 8-14 13v-2l-1-14h-16v98h17v-63l4-8a26 26 0 0 1 15-10l11-2a73 73 0 0 1 18 2l2-16-7-2h-10ZM520 3034v-131h-2l-49 19v16l34-14v110h17Zm121-25-1 4-2 4-8 4a40 40 0 0 1-20 1l-8-3-6-6c-2-2-2-5-3-9h-16l2 12c2 4 5 8 9 11l13 7 17 2c6 0 12 0 16-2 5-1 9-3 13-6 3-2 6-5 8-9a24 24 0 0 0 0-22c-1-3-4-6-7-8-3-3-7-5-12-6l-16-5-11-2c-3-1-6-2-7-4-2-1-4-2-4-4l-1-5 1-5 4-5 7-3a34 34 0 0 1 18 0l7 4 5 5 1 7h17c0-5-1-9-3-12l-7-10-13-7a52 52 0 0 0-43 7c-4 2-6 5-8 9a23 23 0 0 0 0 21c1 3 4 6 7 8l12 6 15 4 12 3 7 4 4 4 1 6Zm86-96h-17v24h-25v13h25v53c0 6 1 11 3 15 1 4 3 8 6 11l10 5c4 2 8 2 12 2a84 84 0 0 0 22-3l5-2-3-12a336 336 0 0 1-20 3l-7-1a14 14 0 0 1-10-9l-1-9v-53h37v-13h-37v-24Zm207 121h17v-84h37v-13h-37v-7l1-11 5-7 7-4 10-2 11 1 8 2 2-13a72 72 0 0 0-9-2 88 88 0 0 0-14-2c-5 0-11 1-15 3a32 32 0 0 0-20 19c-2 4-3 10-3 16v7h-27v13h27v84Zm89-138v15h33v109h-33v14h81v-14h-31v-124h-50Zm103 89v2c0 7 1 13 3 19s5 12 9 16a45 45 0 0 0 51 10c6-2 10-6 14-10s7-10 9-16 3-12 3-19v-2c0-7-1-14-3-20s-5-11-9-16a43 43 0 0 0-33-14 43 43 0 0 0-32 14c-4 5-7 10-9 16s-3 13-3 20Zm17 2v-2l2-14 5-11c2-4 5-6 8-8 4-2 8-3 13-3l12 3c3 2 6 4 8 8 3 3 4 7 5 11 2 5 2 9 2 14v2l-1 14c-2 4-3 8-6 11l-8 8-12 3a25 25 0 0 1-21-11l-5-11-2-14Zm94-2v2c0 7 1 13 3 19s5 12 9 16 8 8 14 10c5 3 12 4 19 4 6 0 13-1 18-4 6-2 10-6 14-10s7-10 9-16 3-12 3-19v-2c0-7-1-14-3-20s-5-11-9-16a43 43 0 0 0-33-14 43 43 0 0 0-32 14c-4 5-7 10-9 16s-3 13-3 20Zm17 2v-2c0-5 0-9 2-14 1-4 2-8 5-11 2-4 5-6 8-8l12-3c5 0 9 1 12 3 4 2 7 4 9 8 3 3 4 7 5 11 2 5 2 9 2 14v2c0 5 0 9-2 14-1 4-2 8-5 11l-8 8-12 3c-5 0-9-1-13-3l-8-8c-3-3-4-7-5-11-2-5-2-9-2-14Zm163-52c-7 0-14 2-19 5-6 3-11 7-15 12v-15h-16v97h16v-62l5-8a26 26 0 0 1 14-11l11-1a74 74 0 0 1 18 2l3-17-8-1-9-1ZM549 5132v-13h-66l35-39a250 250 0 0 0 18-22l5-11 2-11c0-6-1-11-3-15s-4-8-8-12c-3-3-7-5-12-7s-11-3-17-3c-7 0-13 1-18 3a40 40 0 0 0-22 22l-2 16h16l2-12 5-8c2-2 4-4 8-5a32 32 0 0 1 21 0l7 5 5 7 1 9a31 31 0 0 1-4 16l-6 9-10 11-43 48v12h86Zm30 0h17v-70a33 33 0 0 1 9-10 28 28 0 0 1 16-5l9 1c3 1 6 2 7 4l5 8 1 11v61h17v-62c0-6-1-12-3-17a26 26 0 0 0-17-18 42 42 0 0 0-25 0 35 35 0 0 0-15 8l-4 6-2-14h-15v97Zm108-49v1a64 64 0 0 0 11 36c3 4 7 8 12 10 5 3 10 4 16 4s11-1 16-3c4-2 8-5 11-9l1 10h15v-138h-16v50c-3-3-7-6-12-8-4-2-9-3-15-3a35 35 0 0 0-28 14c-4 4-6 9-8 16-2 6-3 12-3 20Zm17 1v-1l1-14 5-11c2-4 5-6 8-8l12-3c6 0 10 1 14 4 4 2 7 6 9 10v45c-2 4-5 8-9 10-4 3-8 4-14 4l-12-3c-3-2-6-4-8-8l-5-11-1-14Zm233 48h17v-84h37v-13h-37v-7l1-11c1-3 3-6 5-7l7-5 10-1 11 1 8 2 2-14a72 72 0 0 0-9-2 88 88 0 0 0-14-1l-15 2a32 32 0 0 0-20 19c-2 5-3 11-3 17v7h-27v13h27v84Zm89-138v14h33v110h-33v14h81v-14h-32v-124h-49Zm103 88v2c0 8 1 14 3 20s5 11 9 16c4 4 8 8 14 10 5 3 12 4 19 4 6 0 13-1 18-4 6-2 10-6 14-10 4-5 7-10 9-16s3-12 3-20v-2c0-7-1-13-3-19s-5-11-9-16c-4-4-8-8-14-10-5-3-12-4-19-4a43 43 0 0 0-32 14c-4 5-7 10-9 16s-3 12-3 19Zm17 2v-2c0-4 0-9 2-13 1-5 2-8 5-12l8-8 12-2 13 2 8 8c3 4 4 7 5 12 2 4 2 9 2 13v2c0 5 0 10-2 14-1 5-2 8-5 12l-8 8-12 2a25 25 0 0 1-21-10c-3-4-4-7-5-12-2-4-2-9-2-14Zm94-2v2c0 8 1 14 3 20s5 11 9 16c4 4 8 8 14 10 5 3 12 4 18 4 7 0 14-1 19-4 5-2 10-6 14-10 4-5 7-10 9-16s3-12 3-20v-2c0-7-1-13-3-19s-5-11-9-16a43 43 0 0 0-33-14 43 43 0 0 0-32 14c-4 5-7 10-9 16s-3 12-3 19Zm17 2v-2l1-13 6-12 8-8 12-2 12 2c4 2 7 5 9 8l5 12 2 13v2c0 5 0 10-2 14-1 5-2 8-5 12-2 3-5 6-9 8l-12 2a25 25 0 0 1-20-10l-6-12-1-14Zm163-51c-8 0-14 1-19 5-6 3-11 7-15 12v-2l-1-13h-15v97h16v-62l4-9a26 26 0 0 1 15-10l11-2a73 73 0 0 1 18 2l3-16-8-2h-9Zm1461 32v14h12l11 1c4 1 7 3 9 5l6 7 2 11-2 11a20 20 0 0 1-13 12 34 34 0 0 1-20 0l-8-5-5-7-2-10h-17c0 6 1 11 4 16a38 38 0 0 0 22 19 54 54 0 0 0 32-1l14-7 8-12a40 40 0 0 0-1-35l-7-7c-3-2-6-4-11-5a33 33 0 0 0 19-21l2-8c0-6-1-11-3-16a32 32 0 0 0-21-19 51 51 0 0 0-33 1c-5 2-9 4-12 7l-9 12c-2 4-3 9-3 14h17l2-9a20 20 0 0 1 12-12l10-1 10 1 7 4 4 7a31 31 0 0 1 0 20l-5 7-8 5-11 1h-12Zm155-25c-7 0-13 1-19 4-5 3-10 8-14 13v-3l-1-13h-16v98h17v-63l4-8a27 27 0 0 1 15-10l11-2a74 74 0 0 1 18 2l2-16-7-2h-10Zm44 49v2c0 7 1 14 3 20s4 11 8 15c3 5 7 8 12 11 5 2 10 4 16 4s11-1 16-3c4-2 8-5 11-9l1 10h15v-139h-16v51c-3-4-7-7-12-8-4-2-9-3-15-3a35 35 0 0 0-28 14c-4 4-6 9-8 15s-3 13-3 20Zm17 2v-2l1-13 5-12 8-7 12-3c6 0 10 1 14 4 4 2 7 5 9 9v46c-2 4-5 7-9 10-4 2-8 4-14 4l-12-3-8-8-5-11-1-14Zm233 48h17v-85h37v-13h-37v-6l1-11 5-8 7-4 10-1 11 1 8 2 2-14a72 72 0 0 0-9-2 87 87 0 0 0-14-1c-6 0-11 0-16 2a32 32 0 0 0-19 19c-2 5-3 10-3 17v6h-27v13h27v85Zm89-139v15h33v110h-33v14h81v-14h-32v-125h-49Zm103 89v2c0 7 1 14 3 20s5 11 9 15c4 5 8 8 14 11 5 2 12 4 19 4 6 0 13-2 18-4 6-3 10-6 14-11 4-4 7-9 9-15s3-13 3-20v-2c0-7-1-13-3-19s-5-12-9-16c-4-5-9-8-14-11-6-2-12-3-19-3a43 43 0 0 0-32 14c-4 4-7 10-9 16s-3 12-3 19Zm17 2v-2c0-4 0-9 2-13 1-5 2-9 5-12l8-8 12-3c5 0 9 1 12 3 4 2 7 5 9 8l5 12c2 4 2 9 2 13v2c0 5 0 10-2 14-1 4-2 8-5 11-2 4-5 6-8 8l-12 3c-5 0-9-1-13-3-3-2-6-4-8-8-3-3-4-7-5-11-2-4-2-9-2-14Zm94-2v2c0 7 1 14 3 20s5 11 9 15c4 5 8 8 14 11a44 44 0 0 0 37 0c5-3 10-6 14-11 4-4 7-9 9-15s3-13 3-20v-2c0-7-1-13-3-19s-5-12-9-16c-4-5-9-8-14-11-6-2-12-3-19-3a43 43 0 0 0-32 14c-4 4-7 10-9 16s-3 12-3 19Zm17 2v-2l1-13c2-5 3-9 6-12l8-8 12-3c5 0 9 1 12 3 4 2 7 5 9 8l5 12 2 13v2l-2 14-5 11c-2 4-5 6-9 8-3 2-7 3-12 3a25 25 0 0 1-20-11c-3-3-4-7-6-11l-1-14Zm162-51c-7 0-13 1-19 4-5 3-10 8-14 13v-3l-1-13h-15v98h16v-63l4-8a26 26 0 0 1 15-10l11-2a73 73 0 0 1 18 2l3-16-8-2h-10Zm-697-1307a8 8 0 0 1 7 7v123a8 8 0 0 1-15 1v-39h-8a8 8 0 0 1-7-7v-47c0-17 11-38 23-38Zm-46 0a8 8 0 0 1 7 7v39a31 31 0 0 1-23 29v55a8 8 0 0 1-7 7 8 8 0 0 1-8-6v-56a31 31 0 0 1-23-28v-39a8 8 0 0 1 7-8 8 8 0 0 1 8 7v39a15 15 0 0 0 8 13v-51a8 8 0 0 1 7-8 8 8 0 0 1 8 7v52a15 15 0 0 0 8-12v-39a8 8 0 0 1 8-8Z" fill="#000"/>
  <defs>
    <clipPath id="a">
      <path fill="#fff" d="M1443 5468h201v178h-201z"/>
    </clipPath>
    <clipPath id="b">
      <path fill="#fff" d="M1318 5902h201v178h-201z"/>
    </clipPath>
    <clipPath id="c">
      <path fill="#fff" d="M2678 3099h201v178h-201z"/>
    </clipPath>
    <clipPath id="d">
      <path fill="#fff" d="M2698 4471h201v178h-201z"/>
    </clipPath>
    <clipPath id="e">
      <path fill="#fff" d="M3633 4483h201v178h-201z"/>
    </clipPath>
    <clipPath id="f">
      <path fill="#fff" d="M2505 3500h201v178h-201z"/>
    </clipPath>
    <clipPath id="g">
      <path fill="#fff" d="M1667 3488h96v197h-96z"/>
    </clipPath>
    <clipPath id="i">
      <path fill="#fff" d="M3316 3496h112v197h-112z"/>
    </clipPath>
    <clipPath id="k">
      <path fill="#fff" d="M3007 3520h125v125h-125z"/>
    </clipPath>
    <clipPath id="l">
      <path fill="#fff" d="M2973 6050h201v178h-201z"/>
    </clipPath>
    <clipPath id="m">
      <path fill="#fff" d="M2468 927h201v178h-201z"/>
    </clipPath>
    <clipPath id="o">
      <path fill="#fff" d="M2480 2131h201v178h-201z"/>
    </clipPath>
  </defs>
</svg>
